<?xml version="1.0" encoding="UTF-8"?>
<svg width="146px" height="45px" viewBox="0 0 146 45" version="1.1" xmlns="http://www.w3.org/2000/svg" xmlns:xlink="http://www.w3.org/1999/xlink">
    <!-- Generator: Sketch 50.2 (55047) - http://www.bohemiancoding.com/sketch -->
    <title>SA-full-logo-white</title>
    <desc>Created with Sketch.</desc>
    <defs>
        <path d="M5.79338277,35.9896704 C-2.07622061,27.2495904 -1.31992171,13.7391868 7.48262364,5.81333934 C16.285169,-2.11250809 29.8006159,-1.45244218 37.6702193,7.28763781 C45.5398227,16.0277178 44.7835238,29.5381214 35.9809784,37.4639688 C34.1192642,39.1402639 42.3296183,41.7309809 40.1442765,42.6439474 C31.9968994,46.0476634 14.943001,46.1513509 5.79338277,35.9896704 Z" id="path-1"></path>
        <linearGradient x1="95.8596861%" y1="4.16591928%" x2="3.60202751%" y2="96.3901345%" id="linearGradient-3">
            <stop stop-color="#FA6820" offset="0%"></stop>
            <stop stop-color="#FA2E48" offset="100%"></stop>
        </linearGradient>
        <linearGradient x1="31.2582141%" y1="75.378082%" x2="100%" y2="15.6335753%" id="linearGradient-4">
            <stop stop-color="#FA3C3E" offset="0%"></stop>
            <stop stop-color="#DD4425" offset="100%"></stop>
        </linearGradient>
    </defs>
    <g id="Homepage" stroke="none" stroke-width="1" fill="none" fill-rule="evenodd">
        <g transform="translate(-57.000000, -44.000000)" id="Header">
            <g>
                <g id="Logos/SA-full-logo-white" transform="translate(57.000000, 44.000000)">
                    <g id="SA-full-logo">
                        <g id="icon">
                            <mask id="mask-2" fill="white">
                                <use xlink:href="#path-1"></use>
                            </mask>
                            <g id="Combined-Shape" fill-rule="nonzero"></g>
                            <rect id="fill" fill="url(#linearGradient-3)" mask="url(#mask-2)" x="-3.0075188" y="-2.4" width="52.3308271" height="50.4"></rect>
                            <g id="S" mask="url(#mask-2)">
                                <g transform="translate(0.416426, 8.117308)">
                                    <path d="M5.37213987,27.862542 C2.62012057,24.8061149 0.922978201,21.1663165 0.255923361,17.3859807 L16.1450343,2.66715463 L27.8387178,6.25663545 L23.0441161,11.0679814 L28.3153469,23.9758768 L16.258705,34.7692879 C12.1780756,33.3971985 8.35505172,31.1754012 5.37213987,27.862542 Z" id="shade" fill="url(#linearGradient-4)" fill-rule="nonzero"></path>
                                    <path d="M26.980762,6.95363477 C26.5363249,6.39084406 25.9330784,5.97463588 25.1728571,5.70496533 C24.4126357,5.43529479 23.6933601,5.30046153 23.0150087,5.30046153 C22.6173545,5.30046153 22.2080107,5.34736006 21.786965,5.44115851 C21.3659193,5.53495696 20.968271,5.68151484 20.5940082,5.88083655 C20.2197453,6.08015826 19.9156614,6.34396245 19.6817471,6.67225703 C19.4478328,7.00055161 19.3308774,7.39918905 19.3308774,7.86818131 C19.3308774,8.61856893 19.6115704,9.19307583 20.1729646,9.59171925 C20.7343588,9.99036267 21.4419389,10.330377 22.295726,10.6117723 C23.149513,10.8931677 24.0676128,11.1745588 25.0500527,11.4559542 C26.0324926,11.7373495 26.9505923,12.135987 27.8043794,12.6518784 C28.6581665,13.1677699 29.3657465,13.8595231 29.9271408,14.7271588 C30.488535,15.5947945 30.7692279,16.7555329 30.7692279,18.2094089 C30.7692279,19.5929361 30.5119261,20.800573 29.9973147,21.832356 C29.4827033,22.864139 28.7868188,23.720037 27.9096403,24.4000758 C27.0324618,25.0801146 26.01495,25.5842737 24.8570744,25.9125683 C23.6991988,26.2408628 22.477015,26.4050077 21.1904866,26.4050077 C19.5764781,26.4050077 18.0794493,26.1587904 16.6993551,25.6663486 C15.3192609,25.1739067 14.0327517,24.3766318 12.839789,23.2745 L16.734442,18.9832423 C17.2958363,19.7336299 18.0034163,20.3139991 18.8572034,20.7243673 C19.7109905,21.1347356 20.5940036,21.3399166 21.5062693,21.3399166 C21.9507064,21.3399166 22.4009846,21.2871558 22.8571174,21.1816325 C23.3132502,21.0761092 23.722594,20.9178267 24.0851612,20.7067802 C24.4477283,20.4957337 24.7401167,20.2260672 24.9623353,19.8977726 C25.1845538,19.569478 25.2956614,19.1825652 25.2956614,18.7370226 C25.2956614,17.986635 25.0091208,17.3945411 24.4360308,16.9607233 C23.8629409,16.5269054 23.1436653,16.1575796 22.2781825,15.8527346 C21.4126997,15.5478896 20.4770567,15.2430492 19.4712253,14.9382043 C18.4653939,14.6333593 17.5297509,14.2229972 16.6642681,13.7071057 C15.7987853,13.1912143 15.0795097,12.5111857 14.5064198,11.6669996 C13.9333298,10.8228136 13.6467892,9.70897364 13.6467892,8.32544648 C13.6467892,6.98881854 13.9099388,5.81635548 14.4362459,4.80802212 C14.962553,3.79968877 15.6642852,2.95551536 16.5414637,2.27547659 C17.4186422,1.59543781 18.4303063,1.08541638 19.5764862,0.745396992 C20.7226661,0.405377604 21.9039154,0.23537046 23.1202696,0.23537046 C24.5237552,0.23537046 25.8804376,0.43468918 27.1903575,0.833332601 C28.5002774,1.23197602 29.6815268,1.90027997 30.734141,2.83826448 L26.980762,6.95363477 Z" id="S" fill="#FFFFFF" fill-rule="evenodd" transform="translate(21.804508, 13.320189) rotate(1.000000) translate(-21.804508, -13.320189) "></path>
                                </g>
                            </g>
                        </g>
                        <path d="M57.287218,14.928 C59.033985,14.928 60.6484211,15.3504 61.9981955,16.2216 L60.8601504,17.9904 C59.7221053,17.4096 58.5840602,17.0928 57.287218,17.0928 C55.9903759,17.0928 55.1169925,17.568 55.1169925,18.492 C55.1169925,19.6536 56.3873684,20.1288 57.922406,20.6304 C60.1190977,21.3432 62.395188,22.188 62.395188,24.7224 C62.395188,27.1776 60.3837594,28.656 56.9696241,28.656 C54.878797,28.656 53.0526316,28.26 51.7293233,27.2304 L52.5497744,25.3032 C53.767218,26.148 55.4345865,26.4648 56.8372932,26.4648 C58.4781955,26.4648 59.4574436,25.9368 59.4574436,24.9336 C59.4574436,23.904 58.1076692,23.4552 56.5990977,22.98 C54.561203,22.3464 52.1792481,21.4488 52.1792481,18.8352 C52.1792481,16.38 54.1112782,14.928 57.287218,14.928 Z M72.1154887,14.928 C75.3178947,14.928 77.276391,17.3832 77.276391,21.528 C77.276391,26.016 74.6562406,28.656 70.2099248,28.656 C69.5218045,28.656 68.5690226,28.6296 67.5897744,28.5768 L67.5897744,34.464 L64.5990977,34.464 L64.5990977,15.324 C65.1019549,15.0864 65.6312782,14.928 66.1341353,14.928 C66.9810526,14.928 67.5103759,15.6408 67.5103759,16.776 L67.5103759,17.2776 C68.6219549,15.6672 70.3687218,14.928 72.1154887,14.928 Z M69.9717293,26.3856 C72.6183459,26.3856 74.232782,24.5904 74.232782,21.528 C74.232782,18.888 73.121203,17.3304 71.0833083,17.3304 C69.3100752,17.3304 67.5897744,18.5448 67.5897744,21.2904 L67.5897744,26.3328 C68.4631579,26.3592 69.283609,26.3856 69.9717293,26.3856 Z M85.3557895,26.3592 C86.9702256,26.3592 88.2935338,25.9896 89.4051128,25.2768 L90.5960902,27.1776 C89.0081203,28.1808 87.2613534,28.656 85.1705263,28.656 C81.28,28.656 78.9774436,26.2536 78.9774436,22.1616 C78.9774436,17.6208 81.4652632,14.928 85.6733835,14.928 C88.796391,14.928 90.6225564,16.5384 90.6225564,19.2312 C90.6225564,21.8712 88.3464662,23.4288 84.5088722,23.4288 C83.6619549,23.4288 82.7885714,23.3496 81.9416541,23.1912 C82.2063158,25.1976 83.3178947,26.3592 85.3557895,26.3592 Z M85.3557895,17.2776 C83.3708271,17.2776 82.1004511,18.8088 81.915188,21.4224 C82.7885714,21.5544 83.6884211,21.6072 84.482406,21.6072 C86.5203008,21.6072 87.7112782,20.7624 87.7112782,19.3632 C87.7112782,18.0696 86.8378947,17.2776 85.3557895,17.2776 Z M98.0138346,14.928 C101.322105,14.928 103.280602,16.7232 103.280602,19.7856 L103.280602,28.26 C102.777744,28.4976 102.248421,28.656 101.745564,28.656 C100.898647,28.656 100.369323,27.9432 100.369323,26.808 L100.369323,26.28 C99.2842105,27.9168 97.6697744,28.656 96.002406,28.656 C93.4087218,28.656 91.847218,27.1512 91.847218,24.6432 C91.847218,21.9768 94.0439098,20.4192 97.8550376,20.4192 C98.6490226,20.4192 99.4959398,20.4456 100.289925,20.4984 L100.289925,20.3664 C100.289925,18.3864 99.4959398,17.2248 97.5109774,17.2248 C96.2141353,17.2248 94.9702256,17.5944 93.9115789,18.3072 L92.7206015,16.4064 C94.2821053,15.4032 95.9759398,14.928 98.0138346,14.928 Z M96.7699248,26.412 C98.5431579,26.412 100.263459,25.1184 100.289925,22.3464 C99.4694737,22.2936 98.6490226,22.2672 97.9344361,22.2672 C95.8965414,22.2672 94.7055639,23.0592 94.7055639,24.4056 C94.7055639,25.62 95.4201504,26.412 96.7699248,26.412 Z M107.734135,7.8 C108.633985,7.8 109.189774,8.4072 109.189774,9.384 L109.189774,28.392 L106.199098,28.392 L106.199098,8.196 C106.701955,7.9584 107.231278,7.8 107.734135,7.8 Z M112.630376,21.2904 L119.061654,28.1808 C118.452932,28.524 117.844211,28.656 117.15609,28.656 C116.097444,28.656 115.462256,28.3128 114.800602,27.5736 L109.269173,21.4224 L115.250526,14.928 L118.082406,15.4032 L112.630376,21.2904 Z M124.917895,14.928 C128.226165,14.928 130.184662,16.7232 130.184662,19.7856 L130.184662,28.26 C129.681805,28.4976 129.152481,28.656 128.649624,28.656 C127.802707,28.656 127.273383,27.9432 127.273383,26.808 L127.273383,26.28 C126.188271,27.9168 124.573835,28.656 122.906466,28.656 C120.312782,28.656 118.751278,27.1512 118.751278,24.6432 C118.751278,21.9768 120.94797,20.4192 124.759098,20.4192 C125.553083,20.4192 126.4,20.4456 127.193985,20.4984 L127.193985,20.3664 C127.193985,18.3864 126.4,17.2248 124.415038,17.2248 C123.118195,17.2248 121.874286,17.5944 120.815639,18.3072 L119.624662,16.4064 C121.186165,15.4032 122.88,14.928 124.917895,14.928 Z M123.673985,26.412 C125.447218,26.412 127.167519,25.1184 127.193985,22.3464 C126.373534,22.2936 125.553083,22.2672 124.838496,22.2672 C122.800602,22.2672 121.609624,23.0592 121.609624,24.4056 C121.609624,25.62 122.324211,26.412 123.673985,26.412 Z M140.619549,14.928 C143.821955,14.928 145.780451,17.3832 145.780451,21.528 C145.780451,26.016 143.160301,28.656 138.713985,28.656 C138.025865,28.656 137.073083,28.6296 136.093835,28.5768 L136.093835,34.464 L133.103158,34.464 L133.103158,15.324 C133.606015,15.0864 134.135338,14.928 134.638195,14.928 C135.485113,14.928 136.014436,15.6408 136.014436,16.776 L136.014436,17.2776 C137.126015,15.6672 138.872782,14.928 140.619549,14.928 Z M138.475789,26.3856 C141.122406,26.3856 142.736842,24.5904 142.736842,21.528 C142.736842,18.888 141.625263,17.3304 139.587368,17.3304 C137.814135,17.3304 136.093835,18.5448 136.093835,21.2904 L136.093835,26.3328 C136.967218,26.3592 137.787669,26.3856 138.475789,26.3856 Z" id="speakap" fill="#FFFFFF"></path>
                    </g>
                </g>
            </g>
        </g>
    </g>
</svg>